<svg width="654" height="410" viewBox="0 0 654 410" fill="none" xmlns="http://www.w3.org/2000/svg">
<path d="M35 0V409" stroke="#DADADA"/>
<path d="M110 0V409" stroke="#DADADA"/>
<path d="M185 0V409" stroke="#DADADA"/>
<path d="M260 0V409" stroke="#DADADA"/>
<path d="M335 0V409" stroke="#DADADA"/>
<path d="M410 0V409" stroke="#DADADA"/>
<path d="M485 0V409" stroke="#DADADA"/>
<path d="M560 0V409" stroke="#DADADA"/>
<path d="M35 409L635 409" stroke="#DADADA"/>
<path d="M35 334L635 334" stroke="#DADADA"/>
<path d="M35 259L635 259" stroke="#DADADA"/>
<path d="M35 184L635 184" stroke="#DADADA"/>
<path d="M35 109L635 109" stroke="#DADADA"/>
<path d="M35 34L635 34" stroke="#DADADA"/>
<path d="M0.38 29.6V28.77H2.26V36H1.34V29.6H0.38ZM3.82313 32.31C3.82313 31.1633 4.00979 30.27 4.38313 29.63C4.75646 28.9833 5.40979 28.66 6.34313 28.66C7.26979 28.66 7.91979 28.9833 8.29313 29.63C8.66646 30.27 8.85312 31.1633 8.85312 32.31C8.85312 33.4767 8.66646 34.3833 8.29313 35.03C7.91979 35.6767 7.26979 36 6.34313 36C5.40979 36 4.75646 35.6767 4.38313 35.03C4.00979 34.3833 3.82313 33.4767 3.82313 32.31ZM7.95313 32.31C7.95313 31.73 7.91313 31.24 7.83313 30.84C7.75979 30.4333 7.60313 30.1067 7.36313 29.86C7.12979 29.6133 6.78979 29.49 6.34313 29.49C5.88979 29.49 5.54313 29.6133 5.30313 29.86C5.06979 30.1067 4.91313 30.4333 4.83313 30.84C4.75979 31.24 4.72313 31.73 4.72313 32.31C4.72313 32.91 4.75979 33.4133 4.83313 33.82C4.91313 34.2267 5.06979 34.5533 5.30313 34.8C5.54313 35.0467 5.88979 35.17 6.34313 35.17C6.78979 35.17 7.12979 35.0467 7.36313 34.8C7.60313 34.5533 7.75979 34.2267 7.83313 33.82C7.91313 33.4133 7.95313 32.91 7.95313 32.31ZM10.1024 32.31C10.1024 31.1633 10.2891 30.27 10.6624 29.63C11.0358 28.9833 11.6891 28.66 12.6224 28.66C13.5491 28.66 14.1991 28.9833 14.5724 29.63C14.9458 30.27 15.1324 31.1633 15.1324 32.31C15.1324 33.4767 14.9458 34.3833 14.5724 35.03C14.1991 35.6767 13.5491 36 12.6224 36C11.6891 36 11.0358 35.6767 10.6624 35.03C10.2891 34.3833 10.1024 33.4767 10.1024 32.31ZM14.2324 32.31C14.2324 31.73 14.1924 31.24 14.1124 30.84C14.0391 30.4333 13.8824 30.1067 13.6424 29.86C13.4091 29.6133 13.0691 29.49 12.6224 29.49C12.1691 29.49 11.8224 29.6133 11.5824 29.86C11.3491 30.1067 11.1924 30.4333 11.1124 30.84C11.0391 31.24 11.0024 31.73 11.0024 32.31C11.0024 32.91 11.0391 33.4133 11.1124 33.82C11.1924 34.2267 11.3491 34.5533 11.5824 34.8C11.8224 35.0467 12.1691 35.17 12.6224 35.17C13.0691 35.17 13.4091 35.0467 13.6424 34.8C13.8824 34.5533 14.0391 34.2267 14.1124 33.82C14.1924 33.4133 14.2324 32.91 14.2324 32.31ZM16.3817 32.31C16.3817 31.1633 16.5684 30.27 16.9417 29.63C17.3151 28.9833 17.9684 28.66 18.9017 28.66C19.8284 28.66 20.4784 28.9833 20.8517 29.63C21.2251 30.27 21.4117 31.1633 21.4117 32.31C21.4117 33.4767 21.2251 34.3833 20.8517 35.03C20.4784 35.6767 19.8284 36 18.9017 36C17.9684 36 17.3151 35.6767 16.9417 35.03C16.5684 34.3833 16.3817 33.4767 16.3817 32.31ZM20.5117 32.31C20.5117 31.73 20.4717 31.24 20.3917 30.84C20.3184 30.4333 20.1617 30.1067 19.9217 29.86C19.6884 29.6133 19.3484 29.49 18.9017 29.49C18.4484 29.49 18.1017 29.6133 17.8617 29.86C17.6284 30.1067 17.4717 30.4333 17.3917 30.84C17.3184 31.24 17.2817 31.73 17.2817 32.31C17.2817 32.91 17.3184 33.4133 17.3917 33.82C17.4717 34.2267 17.6284 34.5533 17.8617 34.8C18.1017 35.0467 18.4484 35.17 18.9017 35.17C19.3484 35.17 19.6884 35.0467 19.9217 34.8C20.1617 34.5533 20.3184 34.2267 20.3917 33.82C20.4717 33.4133 20.5117 32.91 20.5117 32.31Z" fill="#565353"/>
<path d="M1.94 106.04C1.56667 105.893 1.28 105.68 1.08 105.4C0.88 105.12 0.78 104.78 0.78 104.38C0.78 104.02 0.87 103.697 1.05 103.41C1.23 103.117 1.49667 102.887 1.85 102.72C2.21 102.547 2.64333 102.46 3.15 102.46C3.65667 102.46 4.08667 102.547 4.44 102.72C4.8 102.887 5.07 103.117 5.25 103.41C5.43667 103.697 5.53 104.02 5.53 104.38C5.53 104.767 5.42667 105.107 5.22 105.4C5.01333 105.687 4.73 105.9 4.37 106.04C4.78333 106.167 5.11 106.39 5.35 106.71C5.59667 107.023 5.72 107.403 5.72 107.85C5.72 108.283 5.61333 108.663 5.4 108.99C5.18667 109.31 4.88333 109.56 4.49 109.74C4.10333 109.913 3.65667 110 3.15 110C2.64333 110 2.19667 109.913 1.81 109.74C1.43 109.56 1.13333 109.31 0.92 108.99C0.706667 108.663 0.6 108.283 0.6 107.85C0.6 107.403 0.72 107.02 0.96 106.7C1.2 106.38 1.52667 106.16 1.94 106.04ZM4.65 104.49C4.65 104.083 4.51667 103.77 4.25 103.55C3.98333 103.33 3.61667 103.22 3.15 103.22C2.69 103.22 2.32667 103.33 2.06 103.55C1.79333 103.77 1.66 104.087 1.66 104.5C1.66 104.873 1.79667 105.173 2.07 105.4C2.35 105.627 2.71 105.74 3.15 105.74C3.59667 105.74 3.95667 105.627 4.23 105.4C4.51 105.167 4.65 104.863 4.65 104.49ZM3.15 106.44C2.65667 106.44 2.25333 106.557 1.94 106.79C1.62667 107.017 1.47 107.36 1.47 107.82C1.47 108.247 1.62 108.59 1.92 108.85C2.22667 109.11 2.63667 109.24 3.15 109.24C3.66333 109.24 4.07 109.11 4.37 108.85C4.67 108.59 4.82 108.247 4.82 107.82C4.82 107.373 4.66667 107.033 4.36 106.8C4.05333 106.56 3.65 106.44 3.15 106.44ZM6.92859 106.11C6.92859 104.963 7.11526 104.07 7.48859 103.43C7.86193 102.783 8.51526 102.46 9.44859 102.46C10.3753 102.46 11.0253 102.783 11.3986 103.43C11.7719 104.07 11.9586 104.963 11.9586 106.11C11.9586 107.277 11.7719 108.183 11.3986 108.83C11.0253 109.477 10.3753 109.8 9.44859 109.8C8.51526 109.8 7.86193 109.477 7.48859 108.83C7.11526 108.183 6.92859 107.277 6.92859 106.11ZM11.0586 106.11C11.0586 105.53 11.0186 105.04 10.9386 104.64C10.8653 104.233 10.7086 103.907 10.4686 103.66C10.2353 103.413 9.89526 103.29 9.44859 103.29C8.99526 103.29 8.64859 103.413 8.40859 103.66C8.17526 103.907 8.01859 104.233 7.93859 104.64C7.86526 105.04 7.82859 105.53 7.82859 106.11C7.82859 106.71 7.86526 107.213 7.93859 107.62C8.01859 108.027 8.17526 108.353 8.40859 108.6C8.64859 108.847 8.99526 108.97 9.44859 108.97C9.89526 108.97 10.2353 108.847 10.4686 108.6C10.7086 108.353 10.8653 108.027 10.9386 107.62C11.0186 107.213 11.0586 106.71 11.0586 106.11ZM13.2079 106.11C13.2079 104.963 13.3946 104.07 13.7679 103.43C14.1412 102.783 14.7946 102.46 15.7279 102.46C16.6546 102.46 17.3046 102.783 17.6779 103.43C18.0512 104.07 18.2379 104.963 18.2379 106.11C18.2379 107.277 18.0512 108.183 17.6779 108.83C17.3046 109.477 16.6546 109.8 15.7279 109.8C14.7946 109.8 14.1412 109.477 13.7679 108.83C13.3946 108.183 13.2079 107.277 13.2079 106.11ZM17.3379 106.11C17.3379 105.53 17.2979 105.04 17.2179 104.64C17.1446 104.233 16.9879 103.907 16.7479 103.66C16.5146 103.413 16.1746 103.29 15.7279 103.29C15.2746 103.29 14.9279 103.413 14.6879 103.66C14.4546 103.907 14.2979 104.233 14.2179 104.64C14.1446 105.04 14.1079 105.53 14.1079 106.11C14.1079 106.71 14.1446 107.213 14.2179 107.62C14.2979 108.027 14.4546 108.353 14.6879 108.6C14.9279 108.847 15.2746 108.97 15.7279 108.97C16.1746 108.97 16.5146 108.847 16.7479 108.6C16.9879 108.353 17.1446 108.027 17.2179 107.62C17.2979 107.213 17.3379 106.71 17.3379 106.11Z" fill="#565353"/>
<path d="M4.65 178.09C4.50333 177.35 4.04667 176.98 3.28 176.98C2.68667 176.98 2.24333 177.21 1.95 177.67C1.65667 178.123 1.51333 178.873 1.52 179.92C1.67333 179.573 1.92667 179.303 2.28 179.11C2.64 178.91 3.04 178.81 3.48 178.81C4.16667 178.81 4.71333 179.023 5.12 179.45C5.53333 179.877 5.74 180.467 5.74 181.22C5.74 181.673 5.65 182.08 5.47 182.44C5.29667 182.8 5.03 183.087 4.67 183.3C4.31667 183.513 3.88667 183.62 3.38 183.62C2.69333 183.62 2.15667 183.467 1.77 183.16C1.38333 182.853 1.11333 182.43 0.96 181.89C0.806667 181.35 0.73 180.683 0.73 179.89C0.73 177.443 1.58333 176.22 3.29 176.22C3.94333 176.22 4.45667 176.397 4.83 176.75C5.20333 177.103 5.42333 177.55 5.49 178.09H4.65ZM3.29 179.58C3.00333 179.58 2.73333 179.64 2.48 179.76C2.22667 179.873 2.02 180.05 1.86 180.29C1.70667 180.523 1.63 180.81 1.63 181.15C1.63 181.657 1.77667 182.07 2.07 182.39C2.36333 182.703 2.78333 182.86 3.33 182.86C3.79667 182.86 4.16667 182.717 4.44 182.43C4.72 182.137 4.86 181.743 4.86 181.25C4.86 180.73 4.72667 180.323 4.46 180.03C4.19333 179.73 3.80333 179.58 3.29 179.58ZM6.96766 179.91C6.96766 178.763 7.15432 177.87 7.52766 177.23C7.90099 176.583 8.55432 176.26 9.48766 176.26C10.4143 176.26 11.0643 176.583 11.4377 177.23C11.811 177.87 11.9977 178.763 11.9977 179.91C11.9977 181.077 11.811 181.983 11.4377 182.63C11.0643 183.277 10.4143 183.6 9.48766 183.6C8.55432 183.6 7.90099 183.277 7.52766 182.63C7.15432 181.983 6.96766 181.077 6.96766 179.91ZM11.0977 179.91C11.0977 179.33 11.0577 178.84 10.9777 178.44C10.9043 178.033 10.7477 177.707 10.5077 177.46C10.2743 177.213 9.93432 177.09 9.48766 177.09C9.03432 177.09 8.68766 177.213 8.44766 177.46C8.21432 177.707 8.05766 178.033 7.97766 178.44C7.90432 178.84 7.86766 179.33 7.86766 179.91C7.86766 180.51 7.90432 181.013 7.97766 181.42C8.05766 181.827 8.21432 182.153 8.44766 182.4C8.68766 182.647 9.03432 182.77 9.48766 182.77C9.93432 182.77 10.2743 182.647 10.5077 182.4C10.7477 182.153 10.9043 181.827 10.9777 181.42C11.0577 181.013 11.0977 180.51 11.0977 179.91ZM13.247 179.91C13.247 178.763 13.4336 177.87 13.807 177.23C14.1803 176.583 14.8336 176.26 15.767 176.26C16.6936 176.26 17.3436 176.583 17.717 177.23C18.0903 177.87 18.277 178.763 18.277 179.91C18.277 181.077 18.0903 181.983 17.717 182.63C17.3436 183.277 16.6936 183.6 15.767 183.6C14.8336 183.6 14.1803 183.277 13.807 182.63C13.4336 181.983 13.247 181.077 13.247 179.91ZM17.377 179.91C17.377 179.33 17.337 178.84 17.257 178.44C17.1836 178.033 17.027 177.707 16.787 177.46C16.5536 177.213 16.2136 177.09 15.767 177.09C15.3136 177.09 14.967 177.213 14.727 177.46C14.4936 177.707 14.337 178.033 14.257 178.44C14.1836 178.84 14.147 179.33 14.147 179.91C14.147 180.51 14.1836 181.013 14.257 181.42C14.337 181.827 14.4936 182.153 14.727 182.4C14.967 182.647 15.3136 182.77 15.767 182.77C16.2136 182.77 16.5536 182.647 16.787 182.4C17.027 182.153 17.1836 181.827 17.257 181.42C17.337 181.013 17.377 180.51 17.377 179.91Z" fill="#565353"/>
<path d="M0.4 255.79V255.1L3.91 250.24H5V255H6V255.79H5V257.4H4.1V255.79H0.4ZM4.14 251.19L1.45 255H4.14V251.19ZM6.90906 253.71C6.90906 252.563 7.09573 251.67 7.46906 251.03C7.8424 250.383 8.49573 250.06 9.42906 250.06C10.3557 250.06 11.0057 250.383 11.3791 251.03C11.7524 251.67 11.9391 252.563 11.9391 253.71C11.9391 254.877 11.7524 255.783 11.3791 256.43C11.0057 257.077 10.3557 257.4 9.42906 257.4C8.49573 257.4 7.8424 257.077 7.46906 256.43C7.09573 255.783 6.90906 254.877 6.90906 253.71ZM11.0391 253.71C11.0391 253.13 10.9991 252.64 10.9191 252.24C10.8457 251.833 10.6891 251.507 10.4491 251.26C10.2157 251.013 9.87573 250.89 9.42906 250.89C8.97573 250.89 8.62906 251.013 8.38906 251.26C8.15573 251.507 7.99906 251.833 7.91906 252.24C7.84573 252.64 7.80906 253.13 7.80906 253.71C7.80906 254.31 7.84573 254.813 7.91906 255.22C7.99906 255.627 8.15573 255.953 8.38906 256.2C8.62906 256.447 8.97573 256.57 9.42906 256.57C9.87573 256.57 10.2157 256.447 10.4491 256.2C10.6891 255.953 10.8457 255.627 10.9191 255.22C10.9991 254.813 11.0391 254.31 11.0391 253.71ZM13.1884 253.71C13.1884 252.563 13.375 251.67 13.7484 251.03C14.1217 250.383 14.775 250.06 15.7084 250.06C16.635 250.06 17.285 250.383 17.6584 251.03C18.0317 251.67 18.2184 252.563 18.2184 253.71C18.2184 254.877 18.0317 255.783 17.6584 256.43C17.285 257.077 16.635 257.4 15.7084 257.4C14.775 257.4 14.1217 257.077 13.7484 256.43C13.375 255.783 13.1884 254.877 13.1884 253.71ZM17.3184 253.71C17.3184 253.13 17.2784 252.64 17.1984 252.24C17.125 251.833 16.9684 251.507 16.7284 251.26C16.495 251.013 16.155 250.89 15.7084 250.89C15.255 250.89 14.9084 251.013 14.6684 251.26C14.435 251.507 14.2784 251.833 14.1984 252.24C14.125 252.64 14.0884 253.13 14.0884 253.71C14.0884 254.31 14.125 254.813 14.1984 255.22C14.2784 255.627 14.435 255.953 14.6684 256.2C14.9084 256.447 15.255 256.57 15.7084 256.57C16.155 256.57 16.495 256.447 16.7284 256.2C16.9684 255.953 17.125 255.627 17.1984 255.22C17.2784 254.813 17.3184 254.31 17.3184 253.71Z" fill="#565353"/>
<path d="M0.51 330.47C1.35667 329.79 2.02 329.233 2.5 328.8C2.98 328.36 3.38333 327.903 3.71 327.43C4.04333 326.95 4.21 326.48 4.21 326.02C4.21 325.587 4.10333 325.247 3.89 325C3.68333 324.747 3.34667 324.62 2.88 324.62C2.42667 324.62 2.07333 324.763 1.82 325.05C1.57333 325.33 1.44 325.707 1.42 326.18H0.54C0.566667 325.433 0.793333 324.857 1.22 324.45C1.64667 324.043 2.19667 323.84 2.87 323.84C3.55667 323.84 4.1 324.03 4.5 324.41C4.90667 324.79 5.11 325.313 5.11 325.98C5.11 326.533 4.94333 327.073 4.61 327.6C4.28333 328.12 3.91 328.58 3.49 328.98C3.07 329.373 2.53333 329.833 1.88 330.36H5.32V331.12H0.51V330.47ZM6.37195 327.51C6.37195 326.363 6.55862 325.47 6.93195 324.83C7.30529 324.183 7.95862 323.86 8.89195 323.86C9.81862 323.86 10.4686 324.183 10.842 324.83C11.2153 325.47 11.402 326.363 11.402 327.51C11.402 328.677 11.2153 329.583 10.842 330.23C10.4686 330.877 9.81862 331.2 8.89195 331.2C7.95862 331.2 7.30529 330.877 6.93195 330.23C6.55862 329.583 6.37195 328.677 6.37195 327.51ZM10.502 327.51C10.502 326.93 10.462 326.44 10.382 326.04C10.3086 325.633 10.152 325.307 9.91195 325.06C9.67862 324.813 9.33862 324.69 8.89195 324.69C8.43862 324.69 8.09195 324.813 7.85195 325.06C7.61862 325.307 7.46195 325.633 7.38195 326.04C7.30862 326.44 7.27195 326.93 7.27195 327.51C7.27195 328.11 7.30862 328.613 7.38195 329.02C7.46195 329.427 7.61862 329.753 7.85195 330C8.09195 330.247 8.43862 330.37 8.89195 330.37C9.33862 330.37 9.67862 330.247 9.91195 330C10.152 329.753 10.3086 329.427 10.382 329.02C10.462 328.613 10.502 328.11 10.502 327.51ZM12.6513 327.51C12.6513 326.363 12.8379 325.47 13.2113 324.83C13.5846 324.183 14.2379 323.86 15.1713 323.86C16.0979 323.86 16.7479 324.183 17.1213 324.83C17.4946 325.47 17.6812 326.363 17.6812 327.51C17.6812 328.677 17.4946 329.583 17.1213 330.23C16.7479 330.877 16.0979 331.2 15.1713 331.2C14.2379 331.2 13.5846 330.877 13.2113 330.23C12.8379 329.583 12.6513 328.677 12.6513 327.51ZM16.7813 327.51C16.7813 326.93 16.7413 326.44 16.6613 326.04C16.5879 325.633 16.4313 325.307 16.1913 325.06C15.9579 324.813 15.6179 324.69 15.1713 324.69C14.7179 324.69 14.3713 324.813 14.1313 325.06C13.8979 325.307 13.7413 325.633 13.6613 326.04C13.5879 326.44 13.5513 326.93 13.5513 327.51C13.5513 328.11 13.5879 328.613 13.6613 329.02C13.7413 329.427 13.8979 329.753 14.1313 330C14.3713 330.247 14.7179 330.37 15.1713 330.37C15.6179 330.37 15.9579 330.247 16.1913 330C16.4313 329.753 16.5879 329.427 16.6613 329.02C16.7413 328.613 16.7813 328.11 16.7813 327.51Z" fill="#565353"/>
<path d="M0.62 401.31C0.62 400.163 0.806667 399.27 1.18 398.63C1.55333 397.983 2.20667 397.66 3.14 397.66C4.06667 397.66 4.71667 397.983 5.09 398.63C5.46333 399.27 5.65 400.163 5.65 401.31C5.65 402.477 5.46333 403.383 5.09 404.03C4.71667 404.677 4.06667 405 3.14 405C2.20667 405 1.55333 404.677 1.18 404.03C0.806667 403.383 0.62 402.477 0.62 401.31ZM4.75 401.31C4.75 400.73 4.71 400.24 4.63 399.84C4.55667 399.433 4.4 399.107 4.16 398.86C3.92667 398.613 3.58667 398.49 3.14 398.49C2.68667 398.49 2.34 398.613 2.1 398.86C1.86667 399.107 1.71 399.433 1.63 399.84C1.55667 400.24 1.52 400.73 1.52 401.31C1.52 401.91 1.55667 402.413 1.63 402.82C1.71 403.227 1.86667 403.553 2.1 403.8C2.34 404.047 2.68667 404.17 3.14 404.17C3.58667 404.17 3.92667 404.047 4.16 403.8C4.4 403.553 4.55667 403.227 4.63 402.82C4.71 402.413 4.75 401.91 4.75 401.31Z" fill="#565353"/>
<line x1="513" y1="90.5" x2="35" y2="90.5" stroke="#E65252" stroke-dasharray="5.18 5.18"/>
<line x1="512.5" y1="409" x2="512.5" y2="90" stroke="#E65252" stroke-dasharray="5.18 5.18"/>
<line x1="336" y1="258.5" x2="35" y2="258.5" stroke="#E65252" stroke-dasharray="5.18 5.18"/>
<line x1="335.5" y1="409" x2="335.5" y2="258" stroke="#E65252" stroke-dasharray="5.18 5.18"/>
<line x1="166" y1="298.5" x2="35" y2="298.5" stroke="#E65252" stroke-dasharray="5.18 5.18"/>
<line x1="165.5" y1="409" x2="165.5" y2="298" stroke="#E65252" stroke-dasharray="5.18 5.18"/>
<rect x="185.5" y="287.5" width="123" height="82" rx="11.5" fill="white"/>
<rect x="185.5" y="287.5" width="123" height="82" rx="11.5" stroke="#DADADA"/>
<path d="M195.714 310.978C196.899 310.026 197.828 309.247 198.5 308.64C199.172 308.024 199.737 307.385 200.194 306.722C200.661 306.05 200.894 305.392 200.894 304.748C200.894 304.141 200.745 303.665 200.446 303.32C200.157 302.965 199.685 302.788 199.032 302.788C198.397 302.788 197.903 302.989 197.548 303.39C197.203 303.782 197.016 304.309 196.988 304.972H195.756C195.793 303.927 196.111 303.119 196.708 302.55C197.305 301.981 198.075 301.696 199.018 301.696C199.979 301.696 200.74 301.962 201.3 302.494C201.869 303.026 202.154 303.759 202.154 304.692C202.154 305.467 201.921 306.223 201.454 306.96C200.997 307.688 200.474 308.332 199.886 308.892C199.298 309.443 198.547 310.087 197.632 310.824H202.448V311.888H195.714V310.978ZM203.921 306.834C203.921 305.229 204.182 303.978 204.705 303.082C205.227 302.177 206.142 301.724 207.449 301.724C208.746 301.724 209.656 302.177 210.179 303.082C210.701 303.978 210.963 305.229 210.963 306.834C210.963 308.467 210.701 309.737 210.179 310.642C209.656 311.547 208.746 312 207.449 312C206.142 312 205.227 311.547 204.705 310.642C204.182 309.737 203.921 308.467 203.921 306.834ZM209.703 306.834C209.703 306.022 209.647 305.336 209.535 304.776C209.432 304.207 209.213 303.749 208.877 303.404C208.55 303.059 208.074 302.886 207.449 302.886C206.814 302.886 206.329 303.059 205.993 303.404C205.666 303.749 205.447 304.207 205.335 304.776C205.232 305.336 205.181 306.022 205.181 306.834C205.181 307.674 205.232 308.379 205.335 308.948C205.447 309.517 205.666 309.975 205.993 310.32C206.329 310.665 206.814 310.838 207.449 310.838C208.074 310.838 208.55 310.665 208.877 310.32C209.213 309.975 209.432 309.517 209.535 308.948C209.647 308.379 209.703 307.674 209.703 306.834ZM212.712 306.834C212.712 305.229 212.973 303.978 213.496 303.082C214.018 302.177 214.933 301.724 216.24 301.724C217.537 301.724 218.447 302.177 218.97 303.082C219.492 303.978 219.754 305.229 219.754 306.834C219.754 308.467 219.492 309.737 218.97 310.642C218.447 311.547 217.537 312 216.24 312C214.933 312 214.018 311.547 213.496 310.642C212.973 309.737 212.712 308.467 212.712 306.834ZM218.494 306.834C218.494 306.022 218.438 305.336 218.326 304.776C218.223 304.207 218.004 303.749 217.668 303.404C217.341 303.059 216.865 302.886 216.24 302.886C215.605 302.886 215.12 303.059 214.784 303.404C214.457 303.749 214.238 304.207 214.126 304.776C214.023 305.336 213.972 306.022 213.972 306.834C213.972 307.674 214.023 308.379 214.126 308.948C214.238 309.517 214.457 309.975 214.784 310.32C215.12 310.665 215.605 310.838 216.24 310.838C216.865 310.838 217.341 310.665 217.668 310.32C218.004 309.975 218.223 309.517 218.326 308.948C218.438 308.379 218.494 307.674 218.494 306.834ZM197.352 331.964H200.768V333H196.078V323.242H197.352V331.964ZM209.121 328.87C209.121 329.113 209.107 329.369 209.079 329.64H202.947C202.994 330.396 203.25 330.989 203.717 331.418C204.193 331.838 204.767 332.048 205.439 332.048C205.99 332.048 206.447 331.922 206.811 331.67C207.184 331.409 207.446 331.063 207.595 330.634H208.967C208.762 331.371 208.351 331.973 207.735 332.44C207.119 332.897 206.354 333.126 205.439 333.126C204.711 333.126 204.058 332.963 203.479 332.636C202.91 332.309 202.462 331.847 202.135 331.25C201.808 330.643 201.645 329.943 201.645 329.15C201.645 328.357 201.804 327.661 202.121 327.064C202.438 326.467 202.882 326.009 203.451 325.692C204.03 325.365 204.692 325.202 205.439 325.202C206.167 325.202 206.811 325.361 207.371 325.678C207.931 325.995 208.36 326.434 208.659 326.994C208.967 327.545 209.121 328.17 209.121 328.87ZM207.805 328.604C207.805 328.119 207.698 327.703 207.483 327.358C207.268 327.003 206.974 326.737 206.601 326.56C206.237 326.373 205.831 326.28 205.383 326.28C204.739 326.28 204.188 326.485 203.731 326.896C203.283 327.307 203.026 327.876 202.961 328.604H207.805ZM213.519 333.126C212.931 333.126 212.403 333.028 211.937 332.832C211.47 332.627 211.101 332.347 210.831 331.992C210.56 331.628 210.411 331.213 210.383 330.746H211.699C211.736 331.129 211.913 331.441 212.231 331.684C212.557 331.927 212.982 332.048 213.505 332.048C213.99 332.048 214.373 331.941 214.653 331.726C214.933 331.511 215.073 331.241 215.073 330.914C215.073 330.578 214.923 330.331 214.625 330.172C214.326 330.004 213.864 329.841 213.239 329.682C212.669 329.533 212.203 329.383 211.839 329.234C211.484 329.075 211.176 328.847 210.915 328.548C210.663 328.24 210.537 327.839 210.537 327.344C210.537 326.952 210.653 326.593 210.887 326.266C211.12 325.939 211.451 325.683 211.881 325.496C212.31 325.3 212.8 325.202 213.351 325.202C214.2 325.202 214.886 325.417 215.409 325.846C215.931 326.275 216.211 326.863 216.249 327.61H214.975C214.947 327.209 214.783 326.887 214.485 326.644C214.195 326.401 213.803 326.28 213.309 326.28C212.851 326.28 212.487 326.378 212.217 326.574C211.946 326.77 211.811 327.027 211.811 327.344C211.811 327.596 211.89 327.806 212.049 327.974C212.217 328.133 212.422 328.263 212.665 328.366C212.917 328.459 213.262 328.567 213.701 328.688C214.251 328.837 214.699 328.987 215.045 329.136C215.39 329.276 215.684 329.491 215.927 329.78C216.179 330.069 216.309 330.447 216.319 330.914C216.319 331.334 216.202 331.712 215.969 332.048C215.735 332.384 215.404 332.65 214.975 332.846C214.555 333.033 214.069 333.126 213.519 333.126ZM220.833 333.126C220.245 333.126 219.718 333.028 219.251 332.832C218.784 332.627 218.416 332.347 218.145 331.992C217.874 331.628 217.725 331.213 217.697 330.746H219.013C219.05 331.129 219.228 331.441 219.545 331.684C219.872 331.927 220.296 332.048 220.819 332.048C221.304 332.048 221.687 331.941 221.967 331.726C222.247 331.511 222.387 331.241 222.387 330.914C222.387 330.578 222.238 330.331 221.939 330.172C221.64 330.004 221.178 329.841 220.553 329.682C219.984 329.533 219.517 329.383 219.153 329.234C218.798 329.075 218.49 328.847 218.229 328.548C217.977 328.24 217.851 327.839 217.851 327.344C217.851 326.952 217.968 326.593 218.201 326.266C218.434 325.939 218.766 325.683 219.195 325.496C219.624 325.3 220.114 325.202 220.665 325.202C221.514 325.202 222.2 325.417 222.723 325.846C223.246 326.275 223.526 326.863 223.563 327.61H222.289C222.261 327.209 222.098 326.887 221.799 326.644C221.51 326.401 221.118 326.28 220.623 326.28C220.166 326.28 219.802 326.378 219.531 326.574C219.26 326.77 219.125 327.027 219.125 327.344C219.125 327.596 219.204 327.806 219.363 327.974C219.531 328.133 219.736 328.263 219.979 328.366C220.231 328.459 220.576 328.567 221.015 328.688C221.566 328.837 222.014 328.987 222.359 329.136C222.704 329.276 222.998 329.491 223.241 329.78C223.493 330.069 223.624 330.447 223.633 330.914C223.633 331.334 223.516 331.712 223.283 332.048C223.05 332.384 222.718 332.65 222.289 332.846C221.869 333.033 221.384 333.126 220.833 333.126ZM230.438 326.574C230.662 326.135 230.979 325.795 231.39 325.552C231.81 325.309 232.319 325.188 232.916 325.188V326.504H232.58C231.152 326.504 230.438 327.279 230.438 328.828V333H229.164V325.328H230.438V326.574ZM241.387 328.87C241.387 329.113 241.373 329.369 241.345 329.64H235.213C235.259 330.396 235.516 330.989 235.983 331.418C236.459 331.838 237.033 332.048 237.705 332.048C238.255 332.048 238.713 331.922 239.077 331.67C239.45 331.409 239.711 331.063 239.861 330.634H241.233C241.027 331.371 240.617 331.973 240.001 332.44C239.385 332.897 238.619 333.126 237.705 333.126C236.977 333.126 236.323 332.963 235.745 332.636C235.175 332.309 234.727 331.847 234.401 331.25C234.074 330.643 233.911 329.943 233.911 329.15C233.911 328.357 234.069 327.661 234.387 327.064C234.704 326.467 235.147 326.009 235.717 325.692C236.295 325.365 236.958 325.202 237.705 325.202C238.433 325.202 239.077 325.361 239.637 325.678C240.197 325.995 240.626 326.434 240.925 326.994C241.233 327.545 241.387 328.17 241.387 328.87ZM240.071 328.604C240.071 328.119 239.963 327.703 239.749 327.358C239.534 327.003 239.24 326.737 238.867 326.56C238.503 326.373 238.097 326.28 237.649 326.28C237.005 326.28 236.454 326.485 235.997 326.896C235.549 327.307 235.292 327.876 235.227 328.604H240.071ZM244.622 326.378V330.9C244.622 331.273 244.702 331.539 244.86 331.698C245.019 331.847 245.294 331.922 245.686 331.922H246.624V333H245.476C244.767 333 244.235 332.837 243.88 332.51C243.526 332.183 243.348 331.647 243.348 330.9V326.378H242.354V325.328H243.348V323.396H244.622V325.328H246.624V326.378H244.622ZM254.972 325.328V333H253.698V331.866C253.455 332.258 253.115 332.566 252.676 332.79C252.247 333.005 251.771 333.112 251.248 333.112C250.651 333.112 250.114 332.991 249.638 332.748C249.162 332.496 248.784 332.123 248.504 331.628C248.233 331.133 248.098 330.531 248.098 329.822V325.328H249.358V329.654C249.358 330.41 249.549 330.993 249.932 331.404C250.315 331.805 250.837 332.006 251.5 332.006C252.181 332.006 252.718 331.796 253.11 331.376C253.502 330.956 253.698 330.345 253.698 329.542V325.328H254.972ZM258.397 326.574C258.621 326.135 258.938 325.795 259.349 325.552C259.769 325.309 260.278 325.188 260.875 325.188V326.504H260.539C259.111 326.504 258.397 327.279 258.397 328.828V333H257.123V325.328H258.397V326.574ZM266.084 325.188C267.017 325.188 267.773 325.473 268.352 326.042C268.93 326.602 269.22 327.414 269.22 328.478V333H267.96V328.66C267.96 327.895 267.768 327.311 267.386 326.91C267.003 326.499 266.48 326.294 265.818 326.294C265.146 326.294 264.609 326.504 264.208 326.924C263.816 327.344 263.62 327.955 263.62 328.758V333H262.346V325.328H263.62V326.42C263.872 326.028 264.212 325.725 264.642 325.51C265.08 325.295 265.561 325.188 266.084 325.188ZM278.379 333.126C277.66 333.126 277.007 332.963 276.419 332.636C275.84 332.309 275.383 331.847 275.047 331.25C274.72 330.643 274.557 329.943 274.557 329.15C274.557 328.366 274.725 327.675 275.061 327.078C275.406 326.471 275.873 326.009 276.461 325.692C277.049 325.365 277.707 325.202 278.435 325.202C279.163 325.202 279.821 325.365 280.409 325.692C280.997 326.009 281.459 326.467 281.795 327.064C282.14 327.661 282.313 328.357 282.313 329.15C282.313 329.943 282.136 330.643 281.781 331.25C281.436 331.847 280.964 332.309 280.367 332.636C279.77 332.963 279.107 333.126 278.379 333.126ZM278.379 332.006C278.836 332.006 279.266 331.899 279.667 331.684C280.068 331.469 280.39 331.147 280.633 330.718C280.885 330.289 281.011 329.766 281.011 329.15C281.011 328.534 280.89 328.011 280.647 327.582C280.404 327.153 280.087 326.835 279.695 326.63C279.303 326.415 278.878 326.308 278.421 326.308C277.954 326.308 277.525 326.415 277.133 326.63C276.75 326.835 276.442 327.153 276.209 327.582C275.976 328.011 275.859 328.534 275.859 329.15C275.859 329.775 275.971 330.303 276.195 330.732C276.428 331.161 276.736 331.483 277.119 331.698C277.502 331.903 277.922 332.006 278.379 332.006ZM285.262 326.574C285.486 326.135 285.803 325.795 286.214 325.552C286.634 325.309 287.143 325.188 287.74 325.188V326.504H287.404C285.976 326.504 285.262 327.279 285.262 328.828V333H283.988V325.328H285.262V326.574ZM199.886 346.188C200.465 346.188 200.987 346.314 201.454 346.566C201.921 346.809 202.285 347.177 202.546 347.672C202.817 348.167 202.952 348.769 202.952 349.478V354H201.692V349.66C201.692 348.895 201.501 348.311 201.118 347.91C200.735 347.499 200.213 347.294 199.55 347.294C198.878 347.294 198.341 347.504 197.94 347.924C197.548 348.344 197.352 348.955 197.352 349.758V354H196.078V343.64H197.352V347.42C197.604 347.028 197.949 346.725 198.388 346.51C198.836 346.295 199.335 346.188 199.886 346.188ZM205.691 345.082C205.448 345.082 205.243 344.998 205.075 344.83C204.907 344.662 204.823 344.457 204.823 344.214C204.823 343.971 204.907 343.766 205.075 343.598C205.243 343.43 205.448 343.346 205.691 343.346C205.924 343.346 206.12 343.43 206.279 343.598C206.447 343.766 206.531 343.971 206.531 344.214C206.531 344.457 206.447 344.662 206.279 344.83C206.12 344.998 205.924 345.082 205.691 345.082ZM206.307 346.328V354H205.033V346.328H206.307ZM211.642 346.202C212.305 346.202 212.884 346.347 213.378 346.636C213.882 346.925 214.256 347.289 214.498 347.728V346.328H215.786V354.168C215.786 354.868 215.637 355.489 215.338 356.03C215.04 356.581 214.61 357.01 214.05 357.318C213.5 357.626 212.856 357.78 212.118 357.78C211.11 357.78 210.27 357.542 209.598 357.066C208.926 356.59 208.53 355.941 208.408 355.12H209.668C209.808 355.587 210.098 355.96 210.536 356.24C210.975 356.529 211.502 356.674 212.118 356.674C212.818 356.674 213.388 356.455 213.826 356.016C214.274 355.577 214.498 354.961 214.498 354.168V352.558C214.246 353.006 213.873 353.379 213.378 353.678C212.884 353.977 212.305 354.126 211.642 354.126C210.961 354.126 210.34 353.958 209.78 353.622C209.23 353.286 208.796 352.815 208.478 352.208C208.161 351.601 208.002 350.911 208.002 350.136C208.002 349.352 208.161 348.666 208.478 348.078C208.796 347.481 209.23 347.019 209.78 346.692C210.34 346.365 210.961 346.202 211.642 346.202ZM214.498 350.15C214.498 349.571 214.382 349.067 214.148 348.638C213.915 348.209 213.598 347.882 213.196 347.658C212.804 347.425 212.37 347.308 211.894 347.308C211.418 347.308 210.984 347.42 210.592 347.644C210.2 347.868 209.888 348.195 209.654 348.624C209.421 349.053 209.304 349.557 209.304 350.136C209.304 350.724 209.421 351.237 209.654 351.676C209.888 352.105 210.2 352.437 210.592 352.67C210.984 352.894 211.418 353.006 211.894 353.006C212.37 353.006 212.804 352.894 213.196 352.67C213.598 352.437 213.915 352.105 214.148 351.676C214.382 351.237 214.498 350.729 214.498 350.15ZM221.747 346.188C222.326 346.188 222.849 346.314 223.315 346.566C223.782 346.809 224.146 347.177 224.407 347.672C224.678 348.167 224.813 348.769 224.813 349.478V354H223.553V349.66C223.553 348.895 223.362 348.311 222.979 347.91C222.597 347.499 222.074 347.294 221.411 347.294C220.739 347.294 220.203 347.504 219.801 347.924C219.409 348.344 219.213 348.955 219.213 349.758V354H217.939V343.64H219.213V347.42C219.465 347.028 219.811 346.725 220.249 346.51C220.697 346.295 221.197 346.188 221.747 346.188ZM231.901 347.574C232.125 347.135 232.442 346.795 232.853 346.552C233.273 346.309 233.781 346.188 234.379 346.188V347.504H234.043C232.615 347.504 231.901 348.279 231.901 349.828V354H230.627V346.328H231.901V347.574ZM236.507 345.082C236.265 345.082 236.059 344.998 235.891 344.83C235.723 344.662 235.639 344.457 235.639 344.214C235.639 343.971 235.723 343.766 235.891 343.598C236.059 343.43 236.265 343.346 236.507 343.346C236.741 343.346 236.937 343.43 237.095 343.598C237.263 343.766 237.347 343.971 237.347 344.214C237.347 344.457 237.263 344.662 237.095 344.83C236.937 344.998 236.741 345.082 236.507 345.082ZM237.123 346.328V354H235.849V346.328H237.123ZM242.011 354.126C241.423 354.126 240.895 354.028 240.429 353.832C239.962 353.627 239.593 353.347 239.323 352.992C239.052 352.628 238.903 352.213 238.875 351.746H240.191C240.228 352.129 240.405 352.441 240.723 352.684C241.049 352.927 241.474 353.048 241.997 353.048C242.482 353.048 242.865 352.941 243.145 352.726C243.425 352.511 243.565 352.241 243.565 351.914C243.565 351.578 243.415 351.331 243.117 351.172C242.818 351.004 242.356 350.841 241.731 350.682C241.161 350.533 240.695 350.383 240.331 350.234C239.976 350.075 239.668 349.847 239.407 349.548C239.155 349.24 239.029 348.839 239.029 348.344C239.029 347.952 239.145 347.593 239.379 347.266C239.612 346.939 239.943 346.683 240.373 346.496C240.802 346.3 241.292 346.202 241.843 346.202C242.692 346.202 243.378 346.417 243.901 346.846C244.423 347.275 244.703 347.863 244.741 348.61H243.467C243.439 348.209 243.275 347.887 242.977 347.644C242.687 347.401 242.295 347.28 241.801 347.28C241.343 347.28 240.979 347.378 240.709 347.574C240.438 347.77 240.303 348.027 240.303 348.344C240.303 348.596 240.382 348.806 240.541 348.974C240.709 349.133 240.914 349.263 241.157 349.366C241.409 349.459 241.754 349.567 242.193 349.688C242.743 349.837 243.191 349.987 243.537 350.136C243.882 350.276 244.176 350.491 244.419 350.78C244.671 351.069 244.801 351.447 244.811 351.914C244.811 352.334 244.694 352.712 244.461 353.048C244.227 353.384 243.896 353.65 243.467 353.846C243.047 354.033 242.561 354.126 242.011 354.126ZM250.893 354L247.883 350.612V354H246.609V343.64H247.883V349.73L250.837 346.328H252.615L249.003 350.15L252.629 354H250.893Z" fill="#565353"/>
<rect x="355.5" y="247.5" width="123" height="82" rx="11.5" fill="white"/>
<rect x="355.5" y="247.5" width="123" height="82" rx="11.5" stroke="#DADADA"/>
<path d="M372.322 262.984H367.408V266.176C367.623 265.877 367.94 265.635 368.36 265.448C368.78 265.252 369.233 265.154 369.718 265.154C370.493 265.154 371.123 265.317 371.608 265.644C372.093 265.961 372.439 266.377 372.644 266.89C372.859 267.394 372.966 267.931 372.966 268.5C372.966 269.172 372.84 269.774 372.588 270.306C372.336 270.838 371.949 271.258 371.426 271.566C370.913 271.874 370.273 272.028 369.508 272.028C368.528 272.028 367.735 271.776 367.128 271.272C366.521 270.768 366.153 270.096 366.022 269.256H367.268C367.389 269.788 367.646 270.203 368.038 270.502C368.43 270.801 368.925 270.95 369.522 270.95C370.259 270.95 370.815 270.731 371.188 270.292C371.561 269.844 371.748 269.256 371.748 268.528C371.748 267.8 371.561 267.24 371.188 266.848C370.815 266.447 370.264 266.246 369.536 266.246C369.041 266.246 368.607 266.367 368.234 266.61C367.87 266.843 367.604 267.165 367.436 267.576H366.232V261.864H372.322V262.984ZM374.659 266.834C374.659 265.229 374.92 263.978 375.443 263.082C375.966 262.177 376.88 261.724 378.187 261.724C379.484 261.724 380.394 262.177 380.917 263.082C381.44 263.978 381.701 265.229 381.701 266.834C381.701 268.467 381.44 269.737 380.917 270.642C380.394 271.547 379.484 272 378.187 272C376.88 272 375.966 271.547 375.443 270.642C374.92 269.737 374.659 268.467 374.659 266.834ZM380.441 266.834C380.441 266.022 380.385 265.336 380.273 264.776C380.17 264.207 379.951 263.749 379.615 263.404C379.288 263.059 378.812 262.886 378.187 262.886C377.552 262.886 377.067 263.059 376.731 263.404C376.404 263.749 376.185 264.207 376.073 264.776C375.97 265.336 375.919 266.022 375.919 266.834C375.919 267.674 375.97 268.379 376.073 268.948C376.185 269.517 376.404 269.975 376.731 270.32C377.067 270.665 377.552 270.838 378.187 270.838C378.812 270.838 379.288 270.665 379.615 270.32C379.951 269.975 380.17 269.517 380.273 268.948C380.385 268.379 380.441 267.674 380.441 266.834ZM383.45 266.834C383.45 265.229 383.711 263.978 384.234 263.082C384.757 262.177 385.671 261.724 386.978 261.724C388.275 261.724 389.185 262.177 389.708 263.082C390.231 263.978 390.492 265.229 390.492 266.834C390.492 268.467 390.231 269.737 389.708 270.642C389.185 271.547 388.275 272 386.978 272C385.671 272 384.757 271.547 384.234 270.642C383.711 269.737 383.45 268.467 383.45 266.834ZM389.232 266.834C389.232 266.022 389.176 265.336 389.064 264.776C388.961 264.207 388.742 263.749 388.406 263.404C388.079 263.059 387.603 262.886 386.978 262.886C386.343 262.886 385.858 263.059 385.522 263.404C385.195 263.749 384.976 264.207 384.864 264.776C384.761 265.336 384.71 266.022 384.71 266.834C384.71 267.674 384.761 268.379 384.864 268.948C384.976 269.517 385.195 269.975 385.522 270.32C385.858 270.665 386.343 270.838 386.978 270.838C387.603 270.838 388.079 270.665 388.406 270.32C388.742 269.975 388.961 269.517 389.064 268.948C389.176 268.379 389.232 267.674 389.232 266.834ZM369.172 293.098C368.528 293.098 367.949 292.986 367.436 292.762C366.932 292.529 366.535 292.211 366.246 291.81C365.957 291.399 365.807 290.928 365.798 290.396H367.156C367.203 290.853 367.389 291.241 367.716 291.558C368.052 291.866 368.537 292.02 369.172 292.02C369.779 292.02 370.255 291.871 370.6 291.572C370.955 291.264 371.132 290.872 371.132 290.396C371.132 290.023 371.029 289.719 370.824 289.486C370.619 289.253 370.362 289.075 370.054 288.954C369.746 288.833 369.331 288.702 368.808 288.562C368.164 288.394 367.646 288.226 367.254 288.058C366.871 287.89 366.54 287.629 366.26 287.274C365.989 286.91 365.854 286.425 365.854 285.818C365.854 285.286 365.989 284.815 366.26 284.404C366.531 283.993 366.909 283.676 367.394 283.452C367.889 283.228 368.453 283.116 369.088 283.116C370.003 283.116 370.749 283.345 371.328 283.802C371.916 284.259 372.247 284.866 372.322 285.622H370.922C370.875 285.249 370.679 284.922 370.334 284.642C369.989 284.353 369.531 284.208 368.962 284.208C368.43 284.208 367.996 284.348 367.66 284.628C367.324 284.899 367.156 285.281 367.156 285.776C367.156 286.131 367.254 286.42 367.45 286.644C367.655 286.868 367.903 287.041 368.192 287.162C368.491 287.274 368.906 287.405 369.438 287.554C370.082 287.731 370.6 287.909 370.992 288.086C371.384 288.254 371.72 288.52 372 288.884C372.28 289.239 372.42 289.724 372.42 290.34C372.42 290.816 372.294 291.264 372.042 291.684C371.79 292.104 371.417 292.445 370.922 292.706C370.427 292.967 369.844 293.098 369.172 293.098ZM373.819 289.136C373.819 288.352 373.977 287.666 374.295 287.078C374.612 286.481 375.046 286.019 375.597 285.692C376.157 285.365 376.777 285.202 377.459 285.202C378.131 285.202 378.714 285.347 379.209 285.636C379.703 285.925 380.072 286.289 380.315 286.728V285.328H381.603V293H380.315V291.572C380.063 292.02 379.685 292.393 379.181 292.692C378.686 292.981 378.107 293.126 377.445 293.126C376.763 293.126 376.147 292.958 375.597 292.622C375.046 292.286 374.612 291.815 374.295 291.208C373.977 290.601 373.819 289.911 373.819 289.136ZM380.315 289.15C380.315 288.571 380.198 288.067 379.965 287.638C379.731 287.209 379.414 286.882 379.013 286.658C378.621 286.425 378.187 286.308 377.711 286.308C377.235 286.308 376.801 286.42 376.409 286.644C376.017 286.868 375.704 287.195 375.471 287.624C375.237 288.053 375.121 288.557 375.121 289.136C375.121 289.724 375.237 290.237 375.471 290.676C375.704 291.105 376.017 291.437 376.409 291.67C376.801 291.894 377.235 292.006 377.711 292.006C378.187 292.006 378.621 291.894 379.013 291.67C379.414 291.437 379.731 291.105 379.965 290.676C380.198 290.237 380.315 289.729 380.315 289.15ZM385.31 286.378V290.9C385.31 291.273 385.389 291.539 385.548 291.698C385.706 291.847 385.982 291.922 386.374 291.922H387.312V293H386.164C385.454 293 384.922 292.837 384.568 292.51C384.213 292.183 384.036 291.647 384.036 290.9V286.378H383.042V285.328H384.036V283.396H385.31V285.328H387.312V286.378H385.31ZM389.513 284.082C389.271 284.082 389.065 283.998 388.897 283.83C388.729 283.662 388.645 283.457 388.645 283.214C388.645 282.971 388.729 282.766 388.897 282.598C389.065 282.43 389.271 282.346 389.513 282.346C389.747 282.346 389.943 282.43 390.101 282.598C390.269 282.766 390.353 282.971 390.353 283.214C390.353 283.457 390.269 283.662 390.101 283.83C389.943 283.998 389.747 284.082 389.513 284.082ZM390.129 285.328V293H388.855V285.328H390.129ZM395.017 293.126C394.429 293.126 393.901 293.028 393.435 292.832C392.968 292.627 392.599 292.347 392.329 291.992C392.058 291.628 391.909 291.213 391.881 290.746H393.197C393.234 291.129 393.411 291.441 393.729 291.684C394.055 291.927 394.48 292.048 395.003 292.048C395.488 292.048 395.871 291.941 396.151 291.726C396.431 291.511 396.571 291.241 396.571 290.914C396.571 290.578 396.421 290.331 396.123 290.172C395.824 290.004 395.362 289.841 394.737 289.682C394.167 289.533 393.701 289.383 393.337 289.234C392.982 289.075 392.674 288.847 392.413 288.548C392.161 288.24 392.035 287.839 392.035 287.344C392.035 286.952 392.151 286.593 392.385 286.266C392.618 285.939 392.949 285.683 393.379 285.496C393.808 285.3 394.298 285.202 394.849 285.202C395.698 285.202 396.384 285.417 396.907 285.846C397.429 286.275 397.709 286.863 397.747 287.61H396.473C396.445 287.209 396.281 286.887 395.983 286.644C395.693 286.401 395.301 286.28 394.807 286.28C394.349 286.28 393.985 286.378 393.715 286.574C393.444 286.77 393.309 287.027 393.309 287.344C393.309 287.596 393.388 287.806 393.547 287.974C393.715 288.133 393.92 288.263 394.163 288.366C394.415 288.459 394.76 288.567 395.199 288.688C395.749 288.837 396.197 288.987 396.543 289.136C396.888 289.276 397.182 289.491 397.425 289.78C397.677 290.069 397.807 290.447 397.817 290.914C397.817 291.334 397.7 291.712 397.467 292.048C397.233 292.384 396.902 292.65 396.473 292.846C396.053 293.033 395.567 293.126 395.017 293.126ZM402.737 286.378H401.127V293H399.853V286.378H398.859V285.328H399.853V284.782C399.853 283.923 400.072 283.298 400.511 282.906C400.959 282.505 401.673 282.304 402.653 282.304V283.368C402.093 283.368 401.696 283.48 401.463 283.704C401.239 283.919 401.127 284.278 401.127 284.782V285.328H402.737V286.378ZM403.747 289.136C403.747 288.352 403.905 287.666 404.223 287.078C404.54 286.481 404.974 286.019 405.525 285.692C406.085 285.365 406.705 285.202 407.387 285.202C408.059 285.202 408.642 285.347 409.137 285.636C409.631 285.925 410 286.289 410.243 286.728V285.328H411.531V293H410.243V291.572C409.991 292.02 409.613 292.393 409.109 292.692C408.614 292.981 408.035 293.126 407.373 293.126C406.691 293.126 406.075 292.958 405.525 292.622C404.974 292.286 404.54 291.815 404.223 291.208C403.905 290.601 403.747 289.911 403.747 289.136ZM410.243 289.15C410.243 288.571 410.126 288.067 409.893 287.638C409.659 287.209 409.342 286.882 408.941 286.658C408.549 286.425 408.115 286.308 407.639 286.308C407.163 286.308 406.729 286.42 406.337 286.644C405.945 286.868 405.632 287.195 405.399 287.624C405.165 288.053 405.049 288.557 405.049 289.136C405.049 289.724 405.165 290.237 405.399 290.676C405.632 291.105 405.945 291.437 406.337 291.67C406.729 291.894 407.163 292.006 407.639 292.006C408.115 292.006 408.549 291.894 408.941 291.67C409.342 291.437 409.659 291.105 409.893 290.676C410.126 290.237 410.243 289.729 410.243 289.15ZM413.207 289.15C413.207 288.357 413.366 287.666 413.683 287.078C414.001 286.481 414.439 286.019 414.999 285.692C415.569 285.365 416.217 285.202 416.945 285.202C417.888 285.202 418.663 285.431 419.269 285.888C419.885 286.345 420.291 286.98 420.487 287.792H419.115C418.985 287.325 418.728 286.957 418.345 286.686C417.972 286.415 417.505 286.28 416.945 286.28C416.217 286.28 415.629 286.532 415.181 287.036C414.733 287.531 414.509 288.235 414.509 289.15C414.509 290.074 414.733 290.788 415.181 291.292C415.629 291.796 416.217 292.048 416.945 292.048C417.505 292.048 417.972 291.917 418.345 291.656C418.719 291.395 418.975 291.021 419.115 290.536H420.487C420.282 291.32 419.871 291.95 419.255 292.426C418.639 292.893 417.869 293.126 416.945 293.126C416.217 293.126 415.569 292.963 414.999 292.636C414.439 292.309 414.001 291.847 413.683 291.25C413.366 290.653 413.207 289.953 413.207 289.15ZM423.741 286.378V290.9C423.741 291.273 423.821 291.539 423.979 291.698C424.138 291.847 424.413 291.922 424.805 291.922H425.743V293H424.595C423.886 293 423.354 292.837 422.999 292.51C422.645 292.183 422.467 291.647 422.467 290.9V286.378H421.473V285.328H422.467V283.396H423.741V285.328H425.743V286.378H423.741ZM430.633 293.126C429.914 293.126 429.261 292.963 428.673 292.636C428.094 292.309 427.637 291.847 427.301 291.25C426.974 290.643 426.811 289.943 426.811 289.15C426.811 288.366 426.979 287.675 427.315 287.078C427.66 286.471 428.127 286.009 428.715 285.692C429.303 285.365 429.961 285.202 430.689 285.202C431.417 285.202 432.075 285.365 432.663 285.692C433.251 286.009 433.713 286.467 434.049 287.064C434.394 287.661 434.567 288.357 434.567 289.15C434.567 289.943 434.39 290.643 434.035 291.25C433.69 291.847 433.218 292.309 432.621 292.636C432.024 292.963 431.361 293.126 430.633 293.126ZM430.633 292.006C431.09 292.006 431.52 291.899 431.921 291.684C432.322 291.469 432.644 291.147 432.887 290.718C433.139 290.289 433.265 289.766 433.265 289.15C433.265 288.534 433.144 288.011 432.901 287.582C432.658 287.153 432.341 286.835 431.949 286.63C431.557 286.415 431.132 286.308 430.675 286.308C430.208 286.308 429.779 286.415 429.387 286.63C429.004 286.835 428.696 287.153 428.463 287.582C428.23 288.011 428.113 288.534 428.113 289.15C428.113 289.775 428.225 290.303 428.449 290.732C428.682 291.161 428.99 291.483 429.373 291.698C429.756 291.903 430.176 292.006 430.633 292.006ZM437.516 286.574C437.74 286.135 438.057 285.795 438.468 285.552C438.888 285.309 439.397 285.188 439.994 285.188V286.504H439.658C438.23 286.504 437.516 287.279 437.516 288.828V293H436.242V285.328H437.516V286.574ZM448.073 285.328L443.453 296.612H442.137L443.649 292.916L440.555 285.328H441.969L444.377 291.544L446.757 285.328H448.073ZM367.352 307.574C367.576 307.135 367.893 306.795 368.304 306.552C368.724 306.309 369.233 306.188 369.83 306.188V307.504H369.494C368.066 307.504 367.352 308.279 367.352 309.828V314H366.078V306.328H367.352V307.574ZM378.301 309.87C378.301 310.113 378.287 310.369 378.259 310.64H372.127C372.173 311.396 372.43 311.989 372.897 312.418C373.373 312.838 373.947 313.048 374.619 313.048C375.169 313.048 375.627 312.922 375.991 312.67C376.364 312.409 376.625 312.063 376.775 311.634H378.147C377.941 312.371 377.531 312.973 376.915 313.44C376.299 313.897 375.533 314.126 374.619 314.126C373.891 314.126 373.237 313.963 372.659 313.636C372.089 313.309 371.641 312.847 371.315 312.25C370.988 311.643 370.825 310.943 370.825 310.15C370.825 309.357 370.983 308.661 371.301 308.064C371.618 307.467 372.061 307.009 372.631 306.692C373.209 306.365 373.872 306.202 374.619 306.202C375.347 306.202 375.991 306.361 376.551 306.678C377.111 306.995 377.54 307.434 377.839 307.994C378.147 308.545 378.301 309.17 378.301 309.87ZM376.985 309.604C376.985 309.119 376.877 308.703 376.663 308.358C376.448 308.003 376.154 307.737 375.781 307.56C375.417 307.373 375.011 307.28 374.563 307.28C373.919 307.28 373.368 307.485 372.911 307.896C372.463 308.307 372.206 308.876 372.141 309.604H376.985ZM381.536 307.378V311.9C381.536 312.273 381.616 312.539 381.774 312.698C381.933 312.847 382.208 312.922 382.6 312.922H383.538V314H382.39C381.681 314 381.149 313.837 380.794 313.51C380.44 313.183 380.262 312.647 380.262 311.9V307.378H379.268V306.328H380.262V304.396H381.536V306.328H383.538V307.378H381.536ZM391.886 306.328V314H390.612V312.866C390.369 313.258 390.029 313.566 389.59 313.79C389.161 314.005 388.685 314.112 388.162 314.112C387.565 314.112 387.028 313.991 386.552 313.748C386.076 313.496 385.698 313.123 385.418 312.628C385.147 312.133 385.012 311.531 385.012 310.822V306.328H386.272V310.654C386.272 311.41 386.463 311.993 386.846 312.404C387.229 312.805 387.751 313.006 388.414 313.006C389.095 313.006 389.632 312.796 390.024 312.376C390.416 311.956 390.612 311.345 390.612 310.542V306.328H391.886ZM395.311 307.574C395.535 307.135 395.852 306.795 396.263 306.552C396.683 306.309 397.192 306.188 397.789 306.188V307.504H397.453C396.025 307.504 395.311 308.279 395.311 309.828V314H394.037V306.328H395.311V307.574ZM402.998 306.188C403.931 306.188 404.687 306.473 405.266 307.042C405.844 307.602 406.134 308.414 406.134 309.478V314H404.874V309.66C404.874 308.895 404.682 308.311 404.3 307.91C403.917 307.499 403.394 307.294 402.732 307.294C402.06 307.294 401.523 307.504 401.122 307.924C400.73 308.344 400.534 308.955 400.534 309.758V314H399.26V306.328H400.534V307.42C400.786 307.028 401.126 306.725 401.556 306.51C401.994 306.295 402.475 306.188 402.998 306.188Z" fill="#565353"/>
<rect x="530.5" y="79.5" width="123" height="82" rx="11.5" fill="white"/>
<rect x="530.5" y="79.5" width="123" height="82" rx="11.5" stroke="#DADADA"/>
<path d="M540.532 95.04V93.878H543.164V104H541.876V95.04H540.532ZM545.352 98.834C545.352 97.2287 545.614 95.978 546.136 95.082C546.659 94.1767 547.574 93.724 548.88 93.724C550.178 93.724 551.088 94.1767 551.61 95.082C552.133 95.978 552.394 97.2287 552.394 98.834C552.394 100.467 552.133 101.737 551.61 102.642C551.088 103.547 550.178 104 548.88 104C547.574 104 546.659 103.547 546.136 102.642C545.614 101.737 545.352 100.467 545.352 98.834ZM551.134 98.834C551.134 98.022 551.078 97.336 550.966 96.776C550.864 96.2067 550.644 95.7493 550.308 95.404C549.982 95.0587 549.506 94.886 548.88 94.886C548.246 94.886 547.76 95.0587 547.424 95.404C547.098 95.7493 546.878 96.2067 546.766 96.776C546.664 97.336 546.612 98.022 546.612 98.834C546.612 99.674 546.664 100.379 546.766 100.948C546.878 101.517 547.098 101.975 547.424 102.32C547.76 102.665 548.246 102.838 548.88 102.838C549.506 102.838 549.982 102.665 550.308 102.32C550.644 101.975 550.864 101.517 550.966 100.948C551.078 100.379 551.134 99.674 551.134 98.834ZM554.143 98.834C554.143 97.2287 554.405 95.978 554.927 95.082C555.45 94.1767 556.365 93.724 557.671 93.724C558.969 93.724 559.879 94.1767 560.401 95.082C560.924 95.978 561.185 97.2287 561.185 98.834C561.185 100.467 560.924 101.737 560.401 102.642C559.879 103.547 558.969 104 557.671 104C556.365 104 555.45 103.547 554.927 102.642C554.405 101.737 554.143 100.467 554.143 98.834ZM559.925 98.834C559.925 98.022 559.869 97.336 559.757 96.776C559.655 96.2067 559.435 95.7493 559.099 95.404C558.773 95.0587 558.297 94.886 557.671 94.886C557.037 94.886 556.551 95.0587 556.215 95.404C555.889 95.7493 555.669 96.2067 555.557 96.776C555.455 97.336 555.403 98.022 555.403 98.834C555.403 99.674 555.455 100.379 555.557 100.948C555.669 101.517 555.889 101.975 556.215 102.32C556.551 102.665 557.037 102.838 557.671 102.838C558.297 102.838 558.773 102.665 559.099 102.32C559.435 101.975 559.655 101.517 559.757 100.948C559.869 100.379 559.925 99.674 559.925 98.834ZM562.934 98.834C562.934 97.2287 563.196 95.978 563.718 95.082C564.241 94.1767 565.156 93.724 566.462 93.724C567.76 93.724 568.67 94.1767 569.192 95.082C569.715 95.978 569.976 97.2287 569.976 98.834C569.976 100.467 569.715 101.737 569.192 102.642C568.67 103.547 567.76 104 566.462 104C565.156 104 564.241 103.547 563.718 102.642C563.196 101.737 562.934 100.467 562.934 98.834ZM568.716 98.834C568.716 98.022 568.66 97.336 568.548 96.776C568.446 96.2067 568.226 95.7493 567.89 95.404C567.564 95.0587 567.088 94.886 566.462 94.886C565.828 94.886 565.342 95.0587 565.006 95.404C564.68 95.7493 564.46 96.2067 564.348 96.776C564.246 97.336 564.194 98.022 564.194 98.834C564.194 99.674 564.246 100.379 564.348 100.948C564.46 101.517 564.68 101.975 565.006 102.32C565.342 102.665 565.828 102.838 566.462 102.838C567.088 102.838 567.564 102.665 567.89 102.32C568.226 101.975 568.446 101.517 568.548 100.948C568.66 100.379 568.716 99.674 568.716 98.834ZM548.596 115.242V125H547.322V120.576H542.352V125H541.078V115.242H542.352V119.526H547.322V115.242H548.596ZM551.429 116.082C551.187 116.082 550.981 115.998 550.813 115.83C550.645 115.662 550.561 115.457 550.561 115.214C550.561 114.971 550.645 114.766 550.813 114.598C550.981 114.43 551.187 114.346 551.429 114.346C551.663 114.346 551.859 114.43 552.017 114.598C552.185 114.766 552.269 114.971 552.269 115.214C552.269 115.457 552.185 115.662 552.017 115.83C551.859 115.998 551.663 116.082 551.429 116.082ZM552.045 117.328V125H550.771V117.328H552.045ZM557.381 117.202C558.043 117.202 558.622 117.347 559.117 117.636C559.621 117.925 559.994 118.289 560.237 118.728V117.328H561.525V125.168C561.525 125.868 561.375 126.489 561.077 127.03C560.778 127.581 560.349 128.01 559.789 128.318C559.238 128.626 558.594 128.78 557.857 128.78C556.849 128.78 556.009 128.542 555.337 128.066C554.665 127.59 554.268 126.941 554.147 126.12H555.407C555.547 126.587 555.836 126.96 556.275 127.24C556.713 127.529 557.241 127.674 557.857 127.674C558.557 127.674 559.126 127.455 559.565 127.016C560.013 126.577 560.237 125.961 560.237 125.168V123.558C559.985 124.006 559.611 124.379 559.117 124.678C558.622 124.977 558.043 125.126 557.381 125.126C556.699 125.126 556.079 124.958 555.519 124.622C554.968 124.286 554.534 123.815 554.217 123.208C553.899 122.601 553.741 121.911 553.741 121.136C553.741 120.352 553.899 119.666 554.217 119.078C554.534 118.481 554.968 118.019 555.519 117.692C556.079 117.365 556.699 117.202 557.381 117.202ZM560.237 121.15C560.237 120.571 560.12 120.067 559.887 119.638C559.653 119.209 559.336 118.882 558.935 118.658C558.543 118.425 558.109 118.308 557.633 118.308C557.157 118.308 556.723 118.42 556.331 118.644C555.939 118.868 555.626 119.195 555.393 119.624C555.159 120.053 555.043 120.557 555.043 121.136C555.043 121.724 555.159 122.237 555.393 122.676C555.626 123.105 555.939 123.437 556.331 123.67C556.723 123.894 557.157 124.006 557.633 124.006C558.109 124.006 558.543 123.894 558.935 123.67C559.336 123.437 559.653 123.105 559.887 122.676C560.12 122.237 560.237 121.729 560.237 121.15ZM567.486 117.188C568.064 117.188 568.587 117.314 569.054 117.566C569.52 117.809 569.884 118.177 570.146 118.672C570.416 119.167 570.552 119.769 570.552 120.478V125H569.292V120.66C569.292 119.895 569.1 119.311 568.718 118.91C568.335 118.499 567.812 118.294 567.15 118.294C566.478 118.294 565.941 118.504 565.54 118.924C565.148 119.344 564.952 119.955 564.952 120.758V125H563.678V114.64H564.952V118.42C565.204 118.028 565.549 117.725 565.988 117.51C566.436 117.295 566.935 117.188 567.486 117.188ZM577.639 118.574C577.863 118.135 578.18 117.795 578.591 117.552C579.011 117.309 579.52 117.188 580.117 117.188V118.504H579.781C578.353 118.504 577.639 119.279 577.639 120.828V125H576.365V117.328H577.639V118.574ZM588.588 120.87C588.588 121.113 588.574 121.369 588.546 121.64H582.414C582.46 122.396 582.717 122.989 583.184 123.418C583.66 123.838 584.234 124.048 584.906 124.048C585.456 124.048 585.914 123.922 586.278 123.67C586.651 123.409 586.912 123.063 587.062 122.634H588.434C588.228 123.371 587.818 123.973 587.202 124.44C586.586 124.897 585.82 125.126 584.906 125.126C584.178 125.126 583.524 124.963 582.946 124.636C582.376 124.309 581.928 123.847 581.602 123.25C581.275 122.643 581.112 121.943 581.112 121.15C581.112 120.357 581.27 119.661 581.588 119.064C581.905 118.467 582.348 118.009 582.918 117.692C583.496 117.365 584.159 117.202 584.906 117.202C585.634 117.202 586.278 117.361 586.838 117.678C587.398 117.995 587.827 118.434 588.126 118.994C588.434 119.545 588.588 120.17 588.588 120.87ZM587.272 120.604C587.272 120.119 587.164 119.703 586.95 119.358C586.735 119.003 586.441 118.737 586.068 118.56C585.704 118.373 585.298 118.28 584.85 118.28C584.206 118.28 583.655 118.485 583.198 118.896C582.75 119.307 582.493 119.876 582.428 120.604H587.272ZM591.823 118.378V122.9C591.823 123.273 591.903 123.539 592.061 123.698C592.22 123.847 592.495 123.922 592.887 123.922H593.825V125H592.677C591.968 125 591.436 124.837 591.081 124.51C590.727 124.183 590.549 123.647 590.549 122.9V118.378H589.555V117.328H590.549V115.396H591.823V117.328H593.825V118.378H591.823ZM602.173 117.328V125H600.899V123.866C600.656 124.258 600.316 124.566 599.877 124.79C599.448 125.005 598.972 125.112 598.449 125.112C597.852 125.112 597.315 124.991 596.839 124.748C596.363 124.496 595.985 124.123 595.705 123.628C595.434 123.133 595.299 122.531 595.299 121.822V117.328H596.559V121.654C596.559 122.41 596.75 122.993 597.133 123.404C597.516 123.805 598.038 124.006 598.701 124.006C599.382 124.006 599.919 123.796 600.311 123.376C600.703 122.956 600.899 122.345 600.899 121.542V117.328H602.173ZM605.598 118.574C605.822 118.135 606.139 117.795 606.55 117.552C606.97 117.309 607.479 117.188 608.076 117.188V118.504H607.74C606.312 118.504 605.598 119.279 605.598 120.828V125H604.324V117.328H605.598V118.574ZM613.285 117.188C614.218 117.188 614.974 117.473 615.553 118.042C616.131 118.602 616.421 119.414 616.421 120.478V125H615.161V120.66C615.161 119.895 614.969 119.311 614.587 118.91C614.204 118.499 613.681 118.294 613.019 118.294C612.347 118.294 611.81 118.504 611.409 118.924C611.017 119.344 610.821 119.955 610.821 120.758V125H609.547V117.328H610.821V118.42C611.073 118.028 611.413 117.725 611.843 117.51C612.281 117.295 612.762 117.188 613.285 117.188ZM629.724 125L628.45 123.712C627.974 124.207 627.466 124.575 626.924 124.818C626.383 125.051 625.772 125.168 625.09 125.168C624.418 125.168 623.821 125.047 623.298 124.804C622.785 124.561 622.384 124.216 622.094 123.768C621.814 123.32 621.674 122.797 621.674 122.2C621.674 121.519 621.866 120.921 622.248 120.408C622.64 119.885 623.214 119.475 623.97 119.176C623.672 118.821 623.457 118.495 623.326 118.196C623.196 117.897 623.13 117.571 623.13 117.216C623.13 116.805 623.233 116.437 623.438 116.11C623.653 115.774 623.956 115.513 624.348 115.326C624.74 115.139 625.193 115.046 625.706 115.046C626.21 115.046 626.649 115.144 627.022 115.34C627.396 115.536 627.676 115.811 627.862 116.166C628.049 116.511 628.133 116.899 628.114 117.328H626.84C626.85 116.945 626.742 116.647 626.518 116.432C626.294 116.208 626.005 116.096 625.65 116.096C625.277 116.096 624.974 116.203 624.74 116.418C624.516 116.623 624.404 116.889 624.404 117.216C624.404 117.496 624.479 117.767 624.628 118.028C624.787 118.289 625.048 118.611 625.412 118.994L628.324 121.92L628.576 121.528L629.528 119.932H630.9L629.752 121.92C629.594 122.2 629.407 122.494 629.192 122.802L631.39 125H629.724ZM625.09 124.076C625.594 124.076 626.047 123.978 626.448 123.782C626.859 123.586 627.246 123.283 627.61 122.872L624.74 119.988C623.546 120.445 622.948 121.169 622.948 122.158C622.948 122.709 623.144 123.166 623.536 123.53C623.938 123.894 624.456 124.076 625.09 124.076ZM542.352 144.964H545.768V146H541.078V136.242H542.352V144.964ZM550.467 146.126C549.748 146.126 549.095 145.963 548.507 145.636C547.928 145.309 547.471 144.847 547.135 144.25C546.808 143.643 546.645 142.943 546.645 142.15C546.645 141.366 546.813 140.675 547.149 140.078C547.494 139.471 547.961 139.009 548.549 138.692C549.137 138.365 549.795 138.202 550.523 138.202C551.251 138.202 551.909 138.365 552.497 138.692C553.085 139.009 553.547 139.467 553.883 140.064C554.228 140.661 554.401 141.357 554.401 142.15C554.401 142.943 554.224 143.643 553.869 144.25C553.524 144.847 553.052 145.309 552.455 145.636C551.858 145.963 551.195 146.126 550.467 146.126ZM550.467 145.006C550.924 145.006 551.354 144.899 551.755 144.684C552.156 144.469 552.478 144.147 552.721 143.718C552.973 143.289 553.099 142.766 553.099 142.15C553.099 141.534 552.978 141.011 552.735 140.582C552.492 140.153 552.175 139.835 551.783 139.63C551.391 139.415 550.966 139.308 550.509 139.308C550.042 139.308 549.613 139.415 549.221 139.63C548.838 139.835 548.53 140.153 548.297 140.582C548.064 141.011 547.947 141.534 547.947 142.15C547.947 142.775 548.059 143.303 548.283 143.732C548.516 144.161 548.824 144.483 549.207 144.698C549.59 144.903 550.01 145.006 550.467 145.006ZM566.296 138.328L563.902 146H562.586L560.738 139.91L558.89 146H557.574L555.166 138.328H556.468L558.232 144.768L560.136 138.328H561.438L563.3 144.782L565.036 138.328H566.296ZM572.567 139.574C572.791 139.135 573.108 138.795 573.519 138.552C573.939 138.309 574.448 138.188 575.045 138.188V139.504H574.709C573.281 139.504 572.567 140.279 572.567 141.828V146H571.293V138.328H572.567V139.574ZM577.174 137.082C576.931 137.082 576.726 136.998 576.558 136.83C576.39 136.662 576.306 136.457 576.306 136.214C576.306 135.971 576.39 135.766 576.558 135.598C576.726 135.43 576.931 135.346 577.174 135.346C577.407 135.346 577.603 135.43 577.762 135.598C577.93 135.766 578.014 135.971 578.014 136.214C578.014 136.457 577.93 136.662 577.762 136.83C577.603 136.998 577.407 137.082 577.174 137.082ZM577.79 138.328V146H576.516V138.328H577.79ZM582.677 146.126C582.089 146.126 581.561 146.028 581.095 145.832C580.628 145.627 580.259 145.347 579.989 144.992C579.718 144.628 579.569 144.213 579.541 143.746H580.857C580.894 144.129 581.071 144.441 581.389 144.684C581.715 144.927 582.14 145.048 582.663 145.048C583.148 145.048 583.531 144.941 583.811 144.726C584.091 144.511 584.231 144.241 584.231 143.914C584.231 143.578 584.081 143.331 583.783 143.172C583.484 143.004 583.022 142.841 582.397 142.682C581.827 142.533 581.361 142.383 580.997 142.234C580.642 142.075 580.334 141.847 580.073 141.548C579.821 141.24 579.695 140.839 579.695 140.344C579.695 139.952 579.811 139.593 580.045 139.266C580.278 138.939 580.609 138.683 581.039 138.496C581.468 138.3 581.958 138.202 582.509 138.202C583.358 138.202 584.044 138.417 584.567 138.846C585.089 139.275 585.369 139.863 585.407 140.61H584.133C584.105 140.209 583.941 139.887 583.643 139.644C583.353 139.401 582.961 139.28 582.467 139.28C582.009 139.28 581.645 139.378 581.375 139.574C581.104 139.77 580.969 140.027 580.969 140.344C580.969 140.596 581.048 140.806 581.207 140.974C581.375 141.133 581.58 141.263 581.823 141.366C582.075 141.459 582.42 141.567 582.859 141.688C583.409 141.837 583.857 141.987 584.203 142.136C584.548 142.276 584.842 142.491 585.085 142.78C585.337 143.069 585.467 143.447 585.477 143.914C585.477 144.334 585.36 144.712 585.127 145.048C584.893 145.384 584.562 145.65 584.133 145.846C583.713 146.033 583.227 146.126 582.677 146.126ZM591.559 146L588.549 142.612V146H587.275V135.64H588.549V141.73L591.503 138.328H593.281L589.669 142.15L593.295 146H591.559Z" fill="#565353"/>
<circle cx="513.228" cy="90.228" r="11.2279" fill="#E65252"/>
<circle cx="336.228" cy="258.228" r="11.2279" fill="#E65252"/>
<circle cx="166.228" cy="298.228" r="11.2279" fill="#E65252"/>
</svg>
